<svg width="16" height="16" viewBox="0 0 16 16" fill="none" xmlns="http://www.w3.org/2000/svg">
<g clip-path="url(#clip0_688_91)">
<path d="M14.543 11.1497L12.8434 12.8493L11.9965 12.0024L12.8492 11.1497L12.0023 10.3029L12.8492 9.45598L11.9965 8.60331L12.8434 7.75643L11.9965 6.90956L12.8434 6.06269L11.9965 5.21582L3.51625 13.6961L2.24015 12.42L10.7204 3.93971L9.87357 3.09284L9.0267 3.93971L8.17983 3.09284L7.33296 3.93971L6.48029 3.08703L5.63342 3.93391L4.78656 3.08703L3.93389 3.93971L3.08702 3.09284L4.78656 1.39329L5.63342 2.24016L6.48029 1.39329L7.32716 2.24016L8.17403 1.39329L9.0267 2.24596L9.87937 1.39329L10.7262 2.24016L11.5731 1.39329L14.543 4.36314L13.6961 5.21002L14.543 6.05689L13.6903 6.90956L14.543 7.76223L13.6961 8.60911L14.543 9.45598L13.6961 10.3029L14.543 11.1497Z" fill="white"/>
</g>
<defs>
<clipPath id="clip0_688_91">
<rect width="16" height="16" fill="white"/>
</clipPath>
</defs>
</svg>
